<svg version="1.1" xmlns="http://www.w3.org/2000/svg" style="display: block;" viewBox="0 0 2048 2048" width="768" height="768">
<defs>
	<linearGradient id="Gradient1" gradientUnits="userSpaceOnUse" x1="1691.47" y1="1643.73" x2="1683.81" y2="1602.39">
		<stop class="stop0" offset="0" stop-opacity="1" stop-color="rgb(254,79,55)"/>
		<stop class="stop1" offset="1" stop-opacity="1" stop-color="rgb(255,119,68)"/>
	</linearGradient>
</defs>
<path transform="translate(0,0)" fill="rgb(235,59,40)" d="M -0 1116.25 L -0 -0 L 1106.78 0 L 2048 0 L 2048 1480.97 L 2048 1559.13 L 2048 2048 L -0 2048 L 0 1828.98 L 0 1486.15 L -0 1116.25 z"/>
<path transform="translate(0,0)" fill="rgb(249,121,79)" d="M 1975.62 1195.5 C 1978.05 1195.29 1979.39 1196.18 1981.5 1197.23 L 1981.96 1199.5 L 1979.5 1203 C 1977.25 1204 1977.25 1203.86 1974.87 1203.17 L 1973.76 1201 C 1973.91 1198.04 1973.74 1197.74 1975.62 1195.5 z"/>
<path transform="translate(0,0)" fill="rgb(249,121,79)" d="M 1697.06 1144.5 L 1700.5 1144.42 L 1702.5 1146.94 C 1702.77 1150.32 1703.03 1150.68 1701.26 1153.5 L 1698 1154.09 L 1695.06 1151.5 C 1695.03 1147.83 1695.01 1147.52 1697.06 1144.5 z"/>
<path transform="translate(0,0)" fill="rgb(249,121,79)" d="M 1487.11 1192.5 C 1490.27 1191.87 1490.54 1191.85 1493.5 1193.11 C 1495.64 1195.82 1495.78 1197.05 1495.95 1200.5 L 1493.76 1202.5 L 1493.19 1202.53 C 1488.95 1202.25 1488.36 1201.76 1485.5 1198.82 C 1485.2 1195.44 1485.28 1195.38 1487.11 1192.5 z"/>
<path transform="translate(0,0)" fill="rgb(249,121,79)" d="M 1872.67 1142.5 L 1876 1142.74 C 1878.57 1144.79 1878.42 1144.75 1878.98 1148 C 1877.64 1151.22 1877.3 1151.67 1874.5 1153.76 C 1872.16 1153.67 1871.35 1153.18 1869.5 1151.77 C 1868.27 1148.21 1868.58 1147.73 1869.5 1144.23 L 1872.67 1142.5 z"/>
<path transform="translate(0,0)" fill="rgb(249,121,79)" d="M 1566.11 1249.5 C 1567.65 1249.09 1569.41 1249.15 1571 1249.07 C 1572.91 1250.75 1573.98 1251.76 1573.9 1254.5 C 1573.81 1257.88 1572.97 1259 1570.5 1261.06 C 1568.82 1261.14 1567.18 1260.87 1565.5 1260.69 C 1563.12 1258.23 1562.56 1258.01 1562.04 1254.5 C 1563.27 1251.67 1563.61 1251.31 1566.11 1249.5 z"/>
<path transform="translate(0,0)" fill="rgb(249,121,79)" d="M 1916.39 1314.5 L 1921.5 1315.1 C 1923.94 1317.1 1924.42 1317.46 1925.5 1320.39 C 1924.9 1324.48 1924.75 1324.64 1921.74 1327.5 C 1919.92 1327.9 1918.65 1327.7 1916.81 1327.5 C 1915.42 1326.55 1913.18 1325.29 1912.37 1323.77 C 1911.43 1322.01 1911.5 1318.38 1912.29 1316.6 C 1912.93 1315.17 1915 1314.99 1916.39 1314.5 z"/>
<path transform="translate(0,0)" fill="rgb(249,121,79)" d="M 1694.24 1240.5 C 1696.59 1240.11 1698.76 1239.62 1701 1240.82 C 1703.72 1242.28 1704.2 1244.25 1704.93 1247 C 1704.05 1250.17 1704.05 1250.8 1701.5 1253.08 C 1698.99 1253.36 1696.97 1253.03 1694.5 1252.69 C 1691.84 1250.37 1691.28 1250.01 1690.17 1246.5 C 1691.22 1243.15 1691.57 1242.81 1694.24 1240.5 z"/>
<path transform="translate(0,0)" fill="rgb(249,121,79)" d="M 1644.03 1230.5 C 1646.6 1229.52 1648.61 1230.04 1651.22 1230.5 C 1653.57 1232.62 1654 1233.01 1654.95 1236 C 1654.29 1239.29 1653.87 1240.41 1651.5 1242.78 C 1648.82 1243.4 1646.69 1243.26 1644 1242.99 C 1641.48 1240.92 1641.32 1239.98 1640.21 1237 C 1641.03 1233.33 1641.47 1233.03 1644.03 1230.5 z"/>
<path transform="translate(0,0)" fill="rgb(249,121,79)" d="M 1794.95 1272.5 L 1795.76 1272.3 C 1798.37 1271.94 1800.93 1272.83 1802.9 1274.51 C 1804.78 1276.11 1806.1 1278.05 1806.15 1280.6 C 1806.21 1284 1805.19 1284.28 1803.01 1286.5 C 1799.58 1287.48 1797.65 1287.27 1794.5 1285.86 C 1792.47 1283.05 1791.7 1281.57 1791.97 1278 C 1792.17 1275.45 1793.25 1274.27 1794.95 1272.5 z"/>
<path transform="translate(0,0)" fill="rgb(249,121,79)" d="M 1533.45 1294.5 C 1536.7 1294.18 1537.71 1293.93 1540.79 1295.24 C 1543.07 1298.63 1543.54 1300.34 1543.06 1304.5 C 1542.67 1307.92 1541.53 1308.7 1538.81 1310.5 C 1535.62 1311.18 1534.56 1310.75 1531.7 1309.5 C 1529.65 1306.89 1528.75 1305.46 1529.09 1302 C 1529.46 1298.33 1531.01 1296.92 1533.45 1294.5 z"/>
<path transform="translate(0,0)" fill="rgb(236,157,104)" d="M 1577.8 1500.59 C 1593.68 1478.48 1609.07 1454.12 1632.43 1439.16 C 1662.23 1420.08 1703.05 1412.46 1737.64 1420.39 C 1779.28 1429.92 1811.26 1457.3 1833.17 1493.51 L 1834 1494.91 L 1837.67 1495.57 C 1828.42 1497.05 1818.07 1497.35 1809.18 1500.01 C 1791.76 1471.99 1772.41 1451.2 1739.01 1443.4 C 1709.24 1436.45 1676.85 1440.18 1650.84 1456.66 C 1630.94 1469.27 1621.14 1488.42 1606.35 1505.76 C 1596.86 1504.52 1586.94 1503.55 1577.8 1500.59 z"/>
<path transform="translate(0,0)" fill="rgb(240,245,248)" d="M 1606.35 1505.76 C 1621.14 1488.42 1630.94 1469.27 1650.84 1456.66 C 1676.85 1440.18 1709.24 1436.45 1739.01 1443.4 C 1772.41 1451.2 1791.76 1471.99 1809.18 1500.01 C 1786.4 1504.65 1763.07 1507.23 1740 1510.04 C 1724.24 1511.96 1707.8 1514.68 1691.92 1514.83 C 1664.19 1515.09 1633.54 1510.77 1606.35 1505.76 z"/>
<path transform="translate(0,0)" fill="rgb(240,245,248)" d="M 862.581 602.569 C 869.664 596.448 881.112 586.119 889.915 583.185 C 893.954 581.839 899.967 582.459 904.295 582.416 L 937.802 582.275 L 1101.57 581.726 L 1153.68 581.654 C 1162.87 581.646 1174.91 583.07 1183.65 580.09 C 1192.29 584.773 1201.58 594.002 1207.02 602.245 L 1208.25 737.396 C 1208.26 740.323 1209.63 742.253 1211.32 744.546 C 1224.51 762.414 1240.62 778.779 1254.76 795.99 L 1375.7 944.001 C 1376.17 944.598 1379 948.025 1378.98 948.13 C 1378.69 950.442 1370.23 960.183 1368.34 962.743 C 1364.86 950.757 1352.42 938.917 1344.22 929.465 L 1309.01 889.23 L 1242.74 809.319 L 1209.14 769.265 C 1203.58 762.516 1197.24 755.714 1192.41 748.436 C 1186.24 739.149 1188.75 716.184 1188.61 705.077 C 1188.49 696.084 1187.42 685.834 1188.95 677 L 1193.23 674.144 C 1195.24 668.315 1193.82 658.077 1193.75 651.785 L 1193.4 604.321 L 1105.54 605.822 L 956.67 606.246 L 896.281 606.198 C 887.284 606.184 872.147 608.047 864.226 604.189 L 863.423 603.755 L 862.581 602.569 z"/>
<path transform="translate(0,0)" fill="rgb(175,218,246)" d="M 863.423 603.755 L 864.226 604.189 C 872.147 608.047 887.284 606.184 896.281 606.198 L 956.67 606.246 L 1105.54 605.822 L 1193.4 604.321 L 1193.75 651.785 C 1193.82 658.077 1195.24 668.315 1193.23 674.144 L 1188.95 677 C 1187.42 685.834 1188.49 696.084 1188.61 705.077 C 1188.75 716.184 1186.24 739.149 1192.41 748.436 C 1197.24 755.714 1203.58 762.516 1209.14 769.265 L 1242.74 809.319 L 1309.01 889.23 L 1344.22 929.465 C 1352.42 938.917 1364.86 950.757 1368.34 962.743 L 1367.54 1494.01 L 1345.87 1494.03 L 1345.84 1339.69 L 1345.23 1339.64 L 1344.78 1321.84 L 1337.16 1321.09 C 1330.8 1320.62 1318.65 1331.94 1312.93 1335.44 C 1301.7 1342.3 1289.53 1347.74 1278.01 1354.11 L 1195.51 1399.31 C 1200.17 1411.04 1204 1424.03 1205.68 1436.55 C 1207.36 1449.11 1208.14 1462.08 1208.64 1474.74 L 1208.6 1503.36 C 1208.58 1505.73 1208.21 1511.75 1209.17 1513.75 L 1099.82 1531.35 C 1085.54 1533.75 1069.65 1537.96 1055.29 1538.13 C 1032.45 1538.41 1007.63 1531.07 984.859 1527.59 L 841.28 1509.18 C 839.562 1509.11 837.918 1508.74 836.226 1508.44 L 774.694 1501.68 L 721.386 1496.14 C 716.439 1495.58 707.282 1495.66 703.163 1493.09 C 696.659 1491.77 689.595 1492.16 682.954 1492.11 L 683.875 1059.29 L 684.159 1012 C 684.252 1001.63 685.696 989.702 684.098 979.5 C 683.109 973.184 680.442 966.591 678.522 960.475 C 685.81 948.413 695.987 937.833 705.163 927.166 L 745.546 880.457 C 784.507 835.85 822.511 788.776 865.028 747.563 L 865.211 673.321 C 863.547 671.854 861.761 670.72 859.915 669.5 C 857.179 663.926 857.805 657.893 857.81 651.83 L 857.811 625.508 C 857.823 619.296 856.982 611.36 858.5 605.415 L 863.423 603.755 z"/>
<path transform="translate(0,0)" fill="rgb(255,219,157)" d="M 703.546 1389.36 C 733.006 1394.98 763.086 1405.03 791.012 1416 C 806.697 1422.16 824.063 1429.14 837.584 1439.33 C 836.245 1453.51 830.628 1495.42 836.909 1506.94 L 836.226 1508.44 L 774.694 1501.68 L 721.386 1496.14 C 716.439 1495.58 707.282 1495.66 703.163 1493.09 L 703.546 1389.36 z"/>
<path transform="translate(0,0)" fill="rgb(255,219,157)" d="M 841.28 1509.18 C 844.773 1499.56 842.125 1485.68 842.219 1475.41 C 842.498 1444.98 847.829 1415.97 860.997 1388.42 C 881.994 1344.48 921.908 1306.71 968.094 1290.65 C 1012.33 1275.27 1056.86 1277.7 1098.94 1298.11 C 1139.34 1317.7 1180.61 1356.03 1195.51 1399.31 C 1200.17 1411.04 1204 1424.03 1205.68 1436.55 C 1207.36 1449.11 1208.14 1462.08 1208.64 1474.74 L 1208.6 1503.36 C 1208.58 1505.73 1208.21 1511.75 1209.17 1513.75 L 1099.82 1531.35 C 1085.54 1533.75 1069.65 1537.96 1055.29 1538.13 C 1032.45 1538.41 1007.63 1531.07 984.859 1527.59 L 841.28 1509.18 z"/>
<path transform="translate(0,0)" fill="rgb(10,34,91)" d="M 863.423 603.755 L 864.226 604.189 C 872.147 608.047 887.284 606.184 896.281 606.198 L 956.67 606.246 L 1105.54 605.822 L 1193.4 604.321 L 1193.75 651.785 C 1193.82 658.077 1195.24 668.315 1193.23 674.144 L 1188.95 677 C 1187.42 685.834 1188.49 696.084 1188.61 705.077 C 1188.75 716.184 1186.24 739.149 1192.41 748.436 C 1197.24 755.714 1203.58 762.516 1209.14 769.265 L 1242.74 809.319 L 1309.01 889.23 L 1344.22 929.465 C 1352.42 938.917 1364.86 950.757 1368.34 962.743 L 1367.54 1494.01 L 1345.87 1494.03 L 1345.84 1339.69 L 1345.99 984.824 L 703.251 984.837 L 703.546 1389.36 L 703.163 1493.09 C 696.659 1491.77 689.595 1492.16 682.954 1492.11 L 683.875 1059.29 L 684.159 1012 C 684.252 1001.63 685.696 989.702 684.098 979.5 C 683.109 973.184 680.442 966.591 678.522 960.475 C 685.81 948.413 695.987 937.833 705.163 927.166 L 745.546 880.457 C 784.507 835.85 822.511 788.776 865.028 747.563 L 865.211 673.321 C 863.547 671.854 861.761 670.72 859.915 669.5 C 857.179 663.926 857.805 657.893 857.81 651.83 L 857.811 625.508 C 857.823 619.296 856.982 611.36 858.5 605.415 L 863.423 603.755 z"/>
<path transform="translate(0,0)" fill="rgb(175,218,246)" d="M 1019.43 624.5 L 1178.74 624.659 C 1179.16 631.699 1179.97 641.421 1178.38 648.264 C 1177.32 652.807 1173.31 657.997 1171.21 662.289 C 1168.61 667.602 1167.07 675.791 1163.07 680.096 C 1162.27 680.951 1162.46 680.658 1161.11 680.659 L 1037.5 680.649 L 888.48 680.996 C 884.924 672.513 882.812 664.134 879.91 655.5 C 878.965 652.688 877.144 649.639 876.714 646.723 C 875.702 639.873 876.998 631.654 878.393 624.899 L 1019.43 624.5 z"/>
<path transform="translate(0,0)" fill="rgb(175,218,246)" d="M 1165.58 752.491 C 1167.22 752.209 1167.66 752.338 1169.2 752.777 C 1177.91 768.476 1193.59 783.032 1205.38 796.676 L 1297.05 902.591 C 1313.86 922.051 1334.53 942.093 1347.2 964.466 L 829.5 964.058 L 699.206 963.384 C 703.959 954.668 710.332 947.792 716.733 940.288 L 739.975 913 L 856.031 781.37 L 855.062 792.095 C 855.073 798.789 859.315 804.044 863.843 808.542 C 920.49 864.81 1016.11 823.665 1070.79 785.5 C 1077.65 780.713 1084.37 775.587 1090.68 770.1 C 1095.73 765.717 1104.71 755.498 1110.67 753.266 C 1114.3 751.909 1122.03 752.821 1125.96 752.788 L 1165.58 752.491 z"/>
<path transform="translate(0,0)" fill="rgb(10,34,91)" d="M 1195.51 1399.31 L 1278.01 1354.11 C 1289.53 1347.74 1301.7 1342.3 1312.93 1335.44 C 1318.65 1331.94 1330.8 1320.62 1337.16 1321.09 L 1344.78 1321.84 L 1345.23 1339.64 L 1345.84 1339.69 L 1345.87 1494.03 L 1367.54 1494.01 L 1479.6 1494.77 C 1512.38 1495.21 1545.3 1495.88 1577.8 1500.59 C 1586.94 1503.55 1596.86 1504.52 1606.35 1505.76 C 1633.54 1510.77 1664.19 1515.09 1691.92 1514.83 C 1707.8 1514.68 1724.24 1511.96 1740 1510.04 C 1763.07 1507.23 1786.4 1504.65 1809.18 1500.01 C 1818.07 1497.35 1828.42 1497.05 1837.67 1495.57 L 2048 1480.97 L 2048 1559.13 L 2048 2048 L -0 2048 L 0 1828.98 L 0 1486.15 L 682.954 1492.11 C 689.595 1492.16 696.659 1491.77 703.163 1493.09 C 707.282 1495.66 716.439 1495.58 721.386 1496.14 L 774.694 1501.68 L 836.226 1508.44 C 837.918 1508.74 839.562 1509.11 841.28 1509.18 L 984.859 1527.59 C 1007.63 1531.07 1032.45 1538.41 1055.29 1538.13 C 1069.65 1537.96 1085.54 1533.75 1099.82 1531.35 L 1209.17 1513.75 C 1208.21 1511.75 1208.58 1505.73 1208.6 1503.36 L 1208.64 1474.74 C 1208.14 1462.08 1207.36 1449.11 1205.68 1436.55 C 1204 1424.03 1200.17 1411.04 1195.51 1399.31 z"/>
<path transform="translate(0,0)" fill="url(#Gradient1)" d="M 1700.82 1606 C 1726.39 1605.39 1752.47 1602.3 1778 1600.24 L 1932.5 1587.98 L 1989.7 1585.23 C 2003.2 1584.8 2016.39 1584.08 2029.9 1585.19 C 2019.01 1587.59 2007.53 1588.38 1996.47 1589.77 L 1924.14 1598.15 L 1743 1620.13 L 1479 1654.06 L 1347.5 1669.13 L 1329.73 1670.69 C 1326.95 1670.95 1324.16 1671.83 1321.37 1671.5 L 1322 1670.46 L 1394.53 1657.65 C 1407.54 1654.92 1421.05 1652.46 1433.59 1648 L 1700.82 1606 z"/>
<path transform="translate(0,0)" fill="rgb(83,149,217)" d="M 1195.51 1399.31 L 1278.01 1354.11 C 1289.53 1347.74 1301.7 1342.3 1312.93 1335.44 C 1318.65 1331.94 1330.8 1320.62 1337.16 1321.09 L 1344.78 1321.84 L 1345.23 1339.64 L 1345.84 1339.69 L 1345.87 1494.03 L 1367.54 1494.01 L 1479.6 1494.77 C 1512.38 1495.21 1545.3 1495.88 1577.8 1500.59 C 1586.94 1503.55 1596.86 1504.52 1606.35 1505.76 C 1633.54 1510.77 1664.19 1515.09 1691.92 1514.83 C 1707.8 1514.68 1724.24 1511.96 1740 1510.04 C 1763.07 1507.23 1786.4 1504.65 1809.18 1500.01 C 1818.07 1497.35 1828.42 1497.05 1837.67 1495.57 L 2048 1480.97 L 2048 1559.13 L 1927.67 1550.74 L 1897.15 1546.93 C 1891.81 1546.15 1885.59 1544.67 1880.2 1544.92 C 1875.55 1545.14 1869.08 1548.32 1864.65 1549.9 L 1828.38 1562.69 L 1741.12 1591.56 C 1727.9 1596.03 1713.42 1599.99 1700.82 1606 L 1433.59 1648 C 1416.18 1646.87 1401.3 1642.39 1384.63 1637.5 L 1337.58 1623.83 L 1115.44 1559.47 L 1073.15 1547.5 C 1068.04 1546.04 1058.92 1542.26 1053.61 1542.69 C 1048.11 1543.14 1038.61 1548.15 1033 1550.26 L 987.643 1566.57 L 809.942 1622.41 L 348.71 1742.32 L 121.447 1799.5 L 45 1818.15 C 30.0697 1821.76 15.0939 1826.17 0 1828.98 L 0 1486.15 L 682.954 1492.11 C 689.595 1492.16 696.659 1491.77 703.163 1493.09 C 707.282 1495.66 716.439 1495.58 721.386 1496.14 L 774.694 1501.68 L 836.226 1508.44 C 837.918 1508.74 839.562 1509.11 841.28 1509.18 L 984.859 1527.59 C 1007.63 1531.07 1032.45 1538.41 1055.29 1538.13 C 1069.65 1537.96 1085.54 1533.75 1099.82 1531.35 L 1209.17 1513.75 C 1208.21 1511.75 1208.58 1505.73 1208.6 1503.36 L 1208.64 1474.74 C 1208.14 1462.08 1207.36 1449.11 1205.68 1436.55 C 1204 1424.03 1200.17 1411.04 1195.51 1399.31 z"/>
<path transform="translate(0,0)" fill="rgb(255,219,157)" d="M 1195.51 1399.31 L 1278.01 1354.11 C 1289.53 1347.74 1301.7 1342.3 1312.93 1335.44 C 1318.65 1331.94 1330.8 1320.62 1337.16 1321.09 L 1344.78 1321.84 L 1345.23 1339.64 L 1345.09 1394.62 L 1345.16 1494.77 L 1216.81 1512.59 C 1214.47 1512.99 1211.51 1513.86 1209.17 1513.75 C 1208.21 1511.75 1208.58 1505.73 1208.6 1503.36 L 1208.64 1474.74 C 1208.14 1462.08 1207.36 1449.11 1205.68 1436.55 C 1204 1424.03 1200.17 1411.04 1195.51 1399.31 z"/>
<path transform="translate(0,0)" fill="rgb(240,245,248)" d="M 1195.51 1399.31 L 1278.01 1354.11 C 1289.53 1347.74 1301.7 1342.3 1312.93 1335.44 C 1318.65 1331.94 1330.8 1320.62 1337.16 1321.09 L 1344.78 1321.84 L 1345.23 1339.64 L 1345.09 1394.62 C 1335.03 1395.86 1325.71 1399.84 1316.12 1402.97 L 1262.36 1421.25 C 1245.89 1427.28 1229.07 1435 1211.83 1438.27 C 1214.45 1461.7 1216.67 1485.36 1214.42 1508.93 C 1214.27 1510.52 1214.3 1509.88 1214.52 1511.77 L 1216.81 1512.59 C 1214.47 1512.99 1211.51 1513.86 1209.17 1513.75 C 1208.21 1511.75 1208.58 1505.73 1208.6 1503.36 L 1208.64 1474.74 C 1208.14 1462.08 1207.36 1449.11 1205.68 1436.55 C 1204 1424.03 1200.17 1411.04 1195.51 1399.31 z"/>
<path transform="translate(0,0)" fill="rgb(252,228,212)" d="M -0 1116.25 L -0 -0 L 1106.78 0 C 1080.04 38.1404 1056.84 79.6465 1034.5 120.468 L 999.381 185.187 L 967.865 252.877 C 942.657 308.314 919.561 364.223 900.765 422.18 C 888.297 460.625 877.034 498.959 869.371 538.688 C 865.678 557.832 859.126 581.289 860.527 600.691 L 862.581 602.569 L 863.423 603.755 L 858.5 605.415 C 856.982 611.36 857.823 619.296 857.811 625.508 L 857.81 651.83 C 857.805 657.893 857.179 663.926 859.915 669.5 C 861.761 670.72 863.547 671.854 865.211 673.321 L 865.028 747.563 C 822.511 788.776 784.507 835.85 745.546 880.457 L 705.163 927.166 C 695.987 937.833 685.81 948.413 678.522 960.475 C 680.442 966.591 683.109 973.184 684.098 979.5 C 685.696 989.702 684.252 1001.63 684.159 1012 L 683.875 1059.29 L 682.954 1492.11 L 0 1486.15 L -0 1116.25 z"/>
<path transform="translate(0,0)" fill="rgb(235,59,40)" d="M 562.38 444.407 C 612.997 440.797 664.368 458.871 703.233 490.844 C 742.272 522.958 767.831 571.726 772.442 621.986 C 777.318 675.131 764.05 728.215 729.175 769.573 C 704.081 799.332 670.577 822.659 633.154 833.79 C 616.025 838.884 598.76 841.22 580.998 842.769 C 530.108 843.926 481.418 831.073 441.434 798.322 C 399.725 764.157 372.934 713.322 367.838 659.755 C 363.088 609.82 383.596 555.458 415.519 517.522 C 442.436 485.536 479.76 461.434 520.275 450.844 C 534.151 447.217 548.132 445.625 562.38 444.407 z"/>
<path transform="translate(0,0)" fill="rgb(236,157,104)" d="M 683.875 1059.29 L 682.954 1492.11 L 0 1486.15 L -0 1116.25 C 30.7894 1112.67 61.4751 1110.43 92.5 1111.1 C 148.292 1112.31 204.056 1121.52 258.667 1132.45 C 307.906 1142.3 355.652 1153.81 405.914 1157.58 C 487.965 1163.74 571.806 1141.11 639.882 1094.91 C 649.952 1088.07 660.266 1080.62 669.504 1072.7 L 683.875 1059.29 z"/>
</svg>