<?xml version="1.0" encoding="utf-8" ?>
<svg xmlns="http://www.w3.org/2000/svg" xmlns:xlink="http://www.w3.org/1999/xlink" width="512" height="512">
	<path fill="#1B1F25" transform="scale(0.666667 0.666667)" d="M-0 -0L768 0L768 768L-0 768L0 -0Z"/>
	<path fill="#DE791B" transform="scale(0.666667 0.666667)" d="M181.431 484.487C178.477 481.491 176.163 477.451 173.744 473.99C170.68 469.605 167.567 465.238 164.837 460.633C161.018 454.194 157.717 447.363 154.359 440.674C146.518 425.052 139.748 409.026 136.019 391.883C133.97 382.468 132.6 372.232 132.816 362.565C133.156 347.4 137.05 332.474 142.447 318.375C146.383 308.091 150.988 298.294 156.959 289.021C188.552 239.959 242.798 207.475 299.184 195.418C342.467 186.163 385.305 192.641 427.044 205.633C440.272 209.751 454.755 214.663 466.406 222.214C461.427 226.866 457.101 232.24 452.538 237.297L437.203 254.244C434.964 256.956 433.063 259.88 431.09 262.784C430.411 263.783 429.283 265.875 428.223 266.408C427.815 266.613 426.012 266.48 425.507 266.491L411.793 266.301C398.063 266.325 384.514 267.687 371.033 270.277C351.569 274.017 332.553 279.683 314.081 286.842C298.281 292.965 282.511 300.223 268.119 309.245C239.753 327.025 215.204 350.867 197.297 379.166C185.01 398.586 175.736 420.792 175 444.062C174.803 450.3 175.183 456.754 176.277 462.9C177.121 467.637 178.52 472.273 179.537 476.978C180.078 479.485 181.123 481.979 181.431 484.487Z"/>
	<path fill="white" transform="scale(0.666667 0.666667)" d="M503.148 186.835C505.149 185.149 507.31 183.941 509.696 182.88L530.272 263.914C535.295 266.368 540.03 268.891 544.582 272.152C551.04 276.779 556.884 282.167 563.566 286.502C572.656 292.4 582.609 296.389 592.501 300.686C603.43 305.435 614.265 310.026 625.799 313.147C629.566 314.167 633.736 315.365 637.652 315.508C630.255 328.923 618.819 339.597 606.815 348.912C601.268 353.216 595.188 357.118 589.294 360.938L574.681 370.49C573.468 371.357 571.292 372.624 570.638 373.945C568.976 377.304 570.552 384.487 571.567 388.051C574.777 399.317 581.622 409.091 591.938 414.84C596.522 417.395 601.187 419.047 606.297 420.204C599.359 426.946 592.241 429.167 582.561 429.047C575.768 428.962 569.016 427.191 562.555 425.221C547.799 420.722 533.827 414.032 520.385 406.536C511.476 401.569 502.631 395.942 493.227 391.954C483.865 387.985 473.407 385.957 463.312 385.06C457.662 384.558 451.329 384.271 445.818 385.801C442.069 386.841 438.764 388.725 435.956 391.413C429.414 397.673 426.163 405.549 426.012 414.562C425.784 428.231 429.761 439.486 436.053 451.421C440.384 459.637 445.447 467.253 451.928 473.947C456.465 478.631 461.563 482.612 466.826 486.436C480.844 496.62 496.041 504.136 512.38 509.82C517.135 511.473 522.509 513.49 527.541 513.926C511.73 523.792 495.994 533.121 479.111 541.071C461.997 549.129 444.724 555.132 426.571 560.396C386.985 571.876 347.003 577.657 306.264 568.263C284.753 563.303 262.923 555.733 243.951 544.301C237.757 540.568 232.008 536.063 226.349 531.577C215.782 523.201 205.771 514.192 196.721 504.173C193.274 500.358 189.959 496.325 186.908 492.188C185.083 489.713 183.462 486.773 181.431 484.487C181.123 481.979 180.078 479.485 179.537 476.978C178.52 472.273 177.121 467.637 176.277 462.9C175.183 456.754 174.803 450.3 175 444.062C175.736 420.792 185.01 398.586 197.297 379.166C215.204 350.867 239.753 327.025 268.119 309.245C282.511 300.223 298.281 292.965 314.081 286.842C332.553 279.683 351.569 274.017 371.033 270.277C384.514 267.687 398.063 266.325 411.793 266.301L425.507 266.491C426.012 266.48 427.815 266.613 428.223 266.408C429.283 265.875 430.411 263.783 431.09 262.784C433.063 259.88 434.964 256.956 437.203 254.244L452.538 237.297C457.101 232.24 461.427 226.866 466.406 222.214C469.022 219.5 471.202 216.276 473.741 213.464C482.393 203.884 492.437 194.095 503.148 186.835Z"/>
	<path fill="#DE791B" transform="scale(0.666667 0.666667)" d="M503.148 186.835C505.149 185.149 507.31 183.941 509.696 182.88L530.272 263.914C526.355 262.888 522.532 261.155 518.627 259.999C515.049 258.939 511.549 258.452 507.833 258.171C503.674 247.943 503.531 235.905 502.824 225.016C502.283 216.688 501.608 208.088 501.884 199.749C502.028 195.373 502.689 191.175 503.148 186.835Z"/>
</svg>
